0
SECTION
2
HEADER
9
$INSUNITS
70
4
9
$ACADVER
1
AC1014
9
$HANDSEED
5
FFFF
0
ENDSEC
0
SECTION
2
TABLES
0
TABLE
2
VPORT
5
8
100
AcDbSymbolTable
0
ENDTAB
0
TABLE
2
LTYPE
5
5
100
AcDbSymbolTable
0
LTYPE
5
14
100
AcDbSymbolTableRecord
100
AcDbLinetypeTableRecord
2
BYBLOCK
70
0
0
LTYPE
5
15
100
AcDbSymbolTableRecord
100
AcDbLinetypeTableRecord
2
BYLAYER
70
0
0
LTYPE
5
16
100
AcDbSymbolTableRecord
100
AcDbLinetypeTableRecord
2
DASHED
70
0
3
Dashed __ __ __ __ __ __ __ __ __ __ __ __ __ _
72
65
73
2
40
0.75
49
0.5
74
0
49
-0.25
74
0
0
ENDTAB
0
TABLE
2
LAYER
5
2
100
AcDbSymbolTable
70
2
0
LAYER
5
50
100
AcDbSymbolTableRecord
100
AcDbLayerTableRecord
2
0
70
0
62
7
6
CONTINUOUS
0
ENDTAB
0
TABLE
2
STYLE
5
3
100
AcDbSymbolTable
70
1
0
STYLE
5
11
100
AcDbSymbolTableRecord
100
AcDbTextStyleTableRecord
2
STANDARD
70
0
0
ENDTAB
0
TABLE
2
VIEW
5
6
100
AcDbSymbolTable
70
0
0
ENDTAB
0
TABLE
2
UCS
5
7
100
AcDbSymbolTable
70
0
0
ENDTAB
0
TABLE
2
APPID
5
9
100
AcDbSymbolTable
70
2
0
APPID
5
12
100
AcDbSymbolTableRecord
100
AcDbRegAppTableRecord
2
ACAD
70
0
0
ENDTAB
0
TABLE
2
DIMSTYLE
5
A
100
AcDbSymbolTable
70
1
0
ENDTAB
0
TABLE
2
BLOCK_RECORD
5
1
100
AcDbSymbolTable
70
1
0
BLOCK_RECORD
5
1F
100
AcDbSymbolTableRecord
100
AcDbBlockTableRecord
2
*MODEL_SPACE
0
BLOCK_RECORD
5
1B
100
AcDbSymbolTableRecord
100
AcDbBlockTableRecord
2
*PAPER_SPACE
0
ENDTAB
0
ENDSEC
0
SECTION
2
BLOCKS
0
BLOCK
5
20
100
AcDbEntity
100
AcDbBlockBegin
2
*MODEL_SPACE
0
ENDBLK
5
21
100
AcDbEntity
100
AcDbBlockEnd
0
BLOCK
5
1C
100
AcDbEntity
100
AcDbBlockBegin
2
*PAPER_SPACE
0
ENDBLK
5
1D
100
AcDbEntity
100
AcDbBlockEnd
0
ENDSEC
0
SECTION
2
ENTITIES
0
LWPOLYLINE
5
100
100
AcDbEntity
8
0
100
AcDbPolyline
90
14
70
1
43
0.0
10
29.000000000000007
20
-63.320508075688778
10
30.707106781186575
20
-62.613401294502246
10
86.856041981621502
20
-6.4644660940672614
42
-0.19891236737965742
10
90.391575887554225
20
-5.0000000000000071
10
101.39429887741086
20
-5
42
-0.22169466264293869
10
107.52265442236263
20
-7.8576991225076593
10
114.26032671572878
20
-15.887344283849206
42
-0.43519085905493848
10
113.36387881435023
20
-23.150105404885171
10
37.933774314216294
20
-77.806705392807075
42
-0.61236309792650878
10
29.999999999999982
20
-73.757882320203805
10
29.999999999999996
20
-69.120508075688775
10
28.999999999999989
20
-68.120508075688775
10
16.000000000000004
20
-68.120508075688761
10
16.000000000000007
20
-63.320508075688757
0
LWPOLYLINE
5
101
100
AcDbEntity
8
0
100
AcDbPolyline
90
14
70
1
43
0.0
10
-30.707106781186575
20
-62.613401294502246
10
-29.000000000000025
20
-63.320508075688792
10
-16.000000000000028
20
-63.320508075688757
10
-16.000000000000025
20
-68.120508075688761
10
-29.000000000000007
20
-68.120508075688775
10
-30.000000000000014
20
-69.120508075688761
10
-30.000000000000007
20
-73.757882320203777
42
-0.61236309792650878
10
-37.933774314216315
20
-77.806705392807046
10
-113.36387881435022
20
-23.150105404885174
42
-0.4351908590549381
10
-114.26032671572878
20
-15.887344283849217
10
-107.52265442236263
20
-7.8576991225076354
42
-0.22169466264294102
10
-101.39429887741086
20
-4.9999999999999734
10
-90.391575887554239
20
-4.9999999999999805
42
-0.19891236737965753
10
-86.856041981621516
20
-6.4644660940672356
0
LWPOLYLINE
5
102
100
AcDbEntity
8
0
100
AcDbPolyline
90
6
70
1
43
0.0
10
30.000000000000039
20
-39.935731764838572
10
30.000000000000007
20
-7.5000000000001155
42
-0.41421356237306811
10
32.5
20
-5.0000000000000249
10
64.935731764838536
20
-5.0000000000000142
42
-0.66817863791929866
10
68.471265670771274
20
-13.535533905932752
10
38.535533905932709
20
-43.471265670771288
42
-0.66817863791929888
0
LWPOLYLINE
5
103
100
AcDbEntity
8
0
100
AcDbPolyline
90
8
70
1
43
0.0
10
17.999999999999993
20
-57.320508075688721
10
-18.000000000000004
20
-57.320508075688714
10
-23.000000000000004
20
-52.320508075688714
10
-23.000000000000007
20
-10.000000000360094
10
-18.000000000000007
20
-5.0000000003600942
10
18.000000000000007
20
-5.0000000003600942
10
23.000000000000007
20
-10.000000000360094
10
22.999999999999993
20
-52.320508075688736
0
CIRCLE
5
104
100
AcDbEntity
8
0
100
AcDbCircle
10
140.03126357518602
20
14.500000000019762
30
0
40
4.0000000000000036
210
0
220
-0
230
1
0
LWPOLYLINE
5
105
100
AcDbEntity
8
0
100
AcDbPolyline
90
6
70
1
43
0.0
10
124.66791111376176
20
-20.512001246130467
42
0.70020753820970838
10
128.19999999999973
20
-19.226426026757384
10
128.19999999999973
20
-6.9999999999998508
42
0.41421356237309553
10
126.19999999999975
20
-4.9999999999998579
10
115.9408104303312
20
-4.9999999999998597
42
0.63707026080748741
10
114.40872154409323
20
-8.2855752193729426
0
LWPOLYLINE
5
106
100
AcDbEntity
8
0
100
AcDbPolyline
90
6
70
1
43
0.0
10
131.70000000000005
20
16.156378454815105
42
0.70020753820971726
10
129.93395555701153
20
16.799166064454162
10
117.21624398563266
20
1.6427876096864895
42
0.63707026080749318
10
117.98228842875163
20
-3.5527136788005009e-14
10
130.70000000000005
20
-4.801714581503802e-14
42
0.41421356237309759
10
131.70000000000005
20
0.99999999999995204
0
CIRCLE
5
107
100
AcDbEntity
8
0
100
AcDbCircle
10
-143.92885682978402
20
-24.000000000045905
30
0
40
2.5
210
0
220
-0
230
1
0
CIRCLE
5
108
100
AcDbEntity
8
0
100
AcDbCircle
10
-140.03126357518602
20
14.500000000019797
30
0
40
4.0000000000000036
210
0
220
-0
230
1
0
CIRCLE
5
109
100
AcDbEntity
8
0
100
AcDbCircle
10
143.92885682978402
20
-24.00000000004594
30
0
40
2.5
210
0
220
-0
230
1
0
CIRCLE
5
110
100
AcDbEntity
8
0
100
AcDbCircle
10
-138.03126357518602
20
4.5000000000197984
30
0
40
2.5
210
0
220
-0
230
1
0
LWPOLYLINE
5
111
100
AcDbEntity
8
0
100
AcDbPolyline
90
6
70
1
43
0.0
10
-129.93395555701147
20
16.799166064454184
42
0.70020753820972892
10
-131.7000000000001
20
16.156378454815133
10
-131.70000000000005
20
0.99999999999998024
42
0.41421356237309698
10
-130.70000000000005
20
-2.6645352591003757e-14
10
-117.98228842875163
20
-4.0245584642661925e-15
42
0.63707026080749285
10
-117.21624398563266
20
1.6427876096865202
0
CIRCLE
5
112
100
AcDbEntity
8
0
100
AcDbCircle
10
138.03126357518602
20
4.500000000019762
30
0
40
2.5
210
0
220
-0
230
1
0
LWPOLYLINE
5
113
100
AcDbEntity
8
0
100
AcDbPolyline
90
6
70
1
43
0.0
10
-114.40872154409323
20
-8.2855752193729142
42
0.63707026080748752
10
-115.9408104303312
20
-4.9999999999998161
10
-126.19999999999975
20
-4.9999999999998259
42
0.41421356237309553
10
-128.19999999999973
20
-6.9999999999998153
10
-128.1999999999997
20
-19.226426026757355
42
0.70020753820971238
10
-124.66791111376179
20
-20.512001246130431
0
LWPOLYLINE
5
114
100
AcDbEntity
8
0
100
AcDbPolyline
90
8
70
1
43
0.0
10
8.0000000000000036
20
-66.320508075688721
10
7.9999999999999947
20
-67.120508075688747
42
-0.41421356237309953
10
5.0000000000000044
20
-70.120508075688747
10
-5.0000000000000222
20
-70.120508075688747
42
-0.41421356237309764
10
-8.0000000000000178
20
-67.120508075688733
10
-8.0000000000000266
20
-66.320508075688721
42
-0.41421356237309398
10
-5.0000000000000213
20
-63.320508075688728
10
5.0000000000000018
20
-63.320508075688728
42
-0.41421356237309398
0
LWPOLYLINE
5
115
100
AcDbEntity
8
0
100
AcDbPolyline
90
6
70
1
43
0.0
10
-11.66039709009709
20
-79.51397648156825
10
-17.565341224602207
20
-85.593468406235885
42
-0.67345789772925346
10
-20.999999999999982
20
-84.200000000360092
10
-21.000000000000014
20
-78.12050807568879
42
-0.41421356237308982
10
-18.999999999999993
20
-76.120508075688761
10
-13.095055865496439
20
-76.120508075688761
42
-0.66292500219268857
0
LWPOLYLINE
5
116
100
AcDbEntity
8
0
100
AcDbPolyline
90
6
70
1
43
0.0
10
13.095055865496422
20
-76.120508075688747
10
18.999999999999975
20
-76.120508075688761
42
-0.41421356237309537
10
20.999999999999986
20
-78.120508075688775
10
20.999999999999972
20
-84.200000000360092
42
-0.67345789772925413
10
17.565341224602175
20
-85.593468406235885
10
11.66039709009706
20
-79.51397648156825
42
-0.66292500219268746
0
LWPOLYLINE
5
117
100
AcDbEntity
8
0
100
AcDbPolyline
90
6
70
1
43
0.0
10
-13.434658775386065
20
-89.952289998629965
10
-1.4346587753978208
20
-77.597574791480042
42
-0.42277062987051334
10
1.4346587753977884
20
-77.597574791480042
10
13.434658775386046
20
-89.952289998629965
42
-0.6629250021926838
10
11.999999999999961
20
-93.345758404478033
10
-11.999999999999982
20
-93.345758404478005
42
-0.66292500219268047
0
LWPOLYLINE
5
118
100
AcDbEntity
8
0
100
AcDbPolyline
90
6
70
1
43
0.0
10
-64.935731764838565
20
-4.9999999999999929
10
-32.5
20
-5.0000000000000124
42
-0.41421356237306811
10
-30.000000000000004
20
-7.5000000000001066
10
-30.000000000000053
20
-39.935731764838522
42
-0.66817863791929932
10
-38.535533905932787
20
-43.471265670771267
10
-68.471265670771288
20
-13.535533905932738
42
-0.66817863791929932
0
LWPOLYLINE
5
119
100
AcDbEntity
8
0
100
AcDbPolyline
90
81
70
1
43
0.0
10
-7.6105788023256782
20
15.048269366004945
10
-8.2684672926133569
20
14.122094305111258
10
-4.2286167935365855
20
3.0226962809253433
42
1.920982126971164
10
-1.3711134075442173e-16
20
9.0617869258908517
42
-1.000001620823707
10
3.2416447892646971e-06
20
11.061786925886388
42
-1.92098154220697
10
-6.108002035104966
20
2.3386559942752556
10
-10.751417530052372
20
15.09633521578907
42
-0.0024734440202584533
10
-16.686094920898945
20
15.232066348389139
42
0.422383682758248
10
-17.199999999999999
20
14.732259737013244
10
-17.199999999999783
20
7.999999999639904
10
-22.000000000000007
20
7.999999999639904
10
-22.000000000000007
20
14.921671779351735
42
0.40327875970370158
10
-22.481265611989336
20
15.421320678867891
42
-0.001828388581145829
10
-26.865671641791238
20
15.601772035297614
42
0.42739425685286758
10
-29.999999999999961
20
12.604780895474512
10
-30
20
10.000000000000204
42
-0.41421356237310558
10
-35
20
5.0000000000000266
10
-109.77578195222705
20
5.0000000000000107
42
-0.22169466264294033
10
-115.90413749717895
20
7.8576991225077268
10
-125.79259248335786
20
19.642300877492566
42
0.22169466264293963
10
-131.92094802830968
20
22.500000000000281
10
-144.03126357518602
20
22.500000000000249
42
0.55399240706877606
10
-148.52735562827411
20
15.312500000028461
42
-0.24907070618011884
10
-149.68911086757686
20
-17.500000000055827
42
0.57735026918862808
10
-141.02885682978393
20
-32.499999999990933
10
-138.9999999999998
20
-32.500000000001556
10
-137.9999999999998
20
-31.500000000000121
10
-137.99999999999994
20
-4.9999999999999645
10
-133.19999999999993
20
-4.9999999999998401
10
-133.20000000000033
20
-31.25
10
-131.95000000000033
20
-32.499999999990386
10
-130.53153829079287
20
-32.499999999990322
42
0.22169466264293644
10
-126.70131607519787
20
-30.713938048422964
10
-125.21538374576943
20
-28.943072856474718
42
-0.39354287785597031
10
-118.45138721595822
20
-28.108187832304139
10
-29.999999999999982
20
-92.200000000360092
10
-19.999999999999982
20
-92.200000000360092
10
-19.999999999999982
20
-97.000000000360103
10
-28.999999999999968
20
-97.000000000360103
10
-29.999999999999964
20
-98.000000000360089
10
-29.999999999999979
20
-101.00000000036012
42
0.41421356237309404
10
-25.999999999999972
20
-105.0000000003601
10
-9.9999999999999538
20
-105.0000000003601
10
-0.84392044024861379
20
-100.73853936614007
42
-0.22131388079496836
10
0.84392044024862534
20
-100.73853936614009
10
9.9999999999999361
20
-105.0000000003601
10
25.99999999999995
20
-105.0000000003601
42
0.41421356237309404
10
29.99999999999995
20
-101.00000000036012
10
29.999999999999947
20
-98.000000000360089
10
28.99999999999995
20
-97.000000000360103
10
19.999999999999964
20
-97.000000000360103
10
19.999999999999964
20
-92.200000000360092
10
29.999999999999964
20
-92.200000000360092
10
118.45138721595832
20
-28.108187832304065
42
-0.39354287785596825
10
125.21538374576951
20
-28.943072856474622
10
126.70131607519805
20
-30.713938048422989
42
0.22169466264293514
10
130.53153829079287
20
-32.499999999990258
10
131.95000000000033
20
-32.499999999974577
10
133.2000000000003
20
-31.250000000000036
10
133.1999999999999
20
-4.9999999999996181
10
137.99999999999991
20
-4.9999999999997424
10
137.9999999999998
20
-31.500000000000156
10
138.9999999999998
20
-32.500000000010409
10
141.0288568297839
20
-32.499999999999801
42
0.57735026919019017
10
149.68911086757768
20
-17.500000000057231
42
-0.24907070618013027
10
148.52735562827417
20
15.312500000028395
42
0.5539924070679455
10
144.03126357518605
20
22.500000000000217
10
131.92094802830968
20
22.500000000000213
42
0.22169466264293955
10
125.79259248335786
20
19.642300877492524
10
115.90413749717895
20
7.8576991225077002
42
-0.22169466264294091
10
109.77578195222706
20
4.9999999999999858
10
35
20
5.0000000000000195
42
-0.41421356237309542
10
30
20
10.000000000000018
10
30.000000000000004
20
12.604780895474503
42
0.42739425685285676
10
26.865671641804006
20
15.6017720352898
42
-0.0018283885811230692
10
22.481265611989912
20
15.421320678859516
42
0.40327875970375943
10
22
20
14.921671779425306
10
21.999999999999996
20
7.9999999996398952
10
17.199999999999406
20
7.999999999639904
10
17.200000000000003
20
14.732259737012168
42
0.42238368275802751
10
16.686094920899976
20
15.232066348389253
42
-0.010124941553640628
0
ENDSEC
0
SECTION
2
OBJECTS
0
DICTIONARY
5
C
100
AcDbDictionary
3
ACAD_GROUP
350
D
3
ACAD_MLINESTYLE
350
17
0
DICTIONARY
5
D
100
AcDbDictionary
0
DICTIONARY
5
1A
330
C
100
AcDbDictionary
0
DICTIONARY
5
17
100
AcDbDictionary
0
ENDSEC
0
EOF
