0
SECTION
2
HEADER
9
$INSUNITS
70
4
9
$ACADVER
1
AC1014
9
$HANDSEED
5
FFFF
0
ENDSEC
0
SECTION
2
TABLES
0
TABLE
2
VPORT
5
8
100
AcDbSymbolTable
0
ENDTAB
0
TABLE
2
LTYPE
5
5
100
AcDbSymbolTable
0
LTYPE
5
14
100
AcDbSymbolTableRecord
100
AcDbLinetypeTableRecord
2
BYBLOCK
70
0
0
LTYPE
5
15
100
AcDbSymbolTableRecord
100
AcDbLinetypeTableRecord
2
BYLAYER
70
0
0
LTYPE
5
16
100
AcDbSymbolTableRecord
100
AcDbLinetypeTableRecord
2
DASHED
70
0
3
Dashed __ __ __ __ __ __ __ __ __ __ __ __ __ _
72
65
73
2
40
0.75
49
0.5
74
0
49
-0.25
74
0
0
ENDTAB
0
TABLE
2
LAYER
5
2
100
AcDbSymbolTable
70
2
0
LAYER
5
50
100
AcDbSymbolTableRecord
100
AcDbLayerTableRecord
2
0
70
0
62
7
6
CONTINUOUS
0
ENDTAB
0
TABLE
2
STYLE
5
3
100
AcDbSymbolTable
70
1
0
STYLE
5
11
100
AcDbSymbolTableRecord
100
AcDbTextStyleTableRecord
2
STANDARD
70
0
0
ENDTAB
0
TABLE
2
VIEW
5
6
100
AcDbSymbolTable
70
0
0
ENDTAB
0
TABLE
2
UCS
5
7
100
AcDbSymbolTable
70
0
0
ENDTAB
0
TABLE
2
APPID
5
9
100
AcDbSymbolTable
70
2
0
APPID
5
12
100
AcDbSymbolTableRecord
100
AcDbRegAppTableRecord
2
ACAD
70
0
0
ENDTAB
0
TABLE
2
DIMSTYLE
5
A
100
AcDbSymbolTable
70
1
0
ENDTAB
0
TABLE
2
BLOCK_RECORD
5
1
100
AcDbSymbolTable
70
1
0
BLOCK_RECORD
5
1F
100
AcDbSymbolTableRecord
100
AcDbBlockTableRecord
2
*MODEL_SPACE
0
BLOCK_RECORD
5
1B
100
AcDbSymbolTableRecord
100
AcDbBlockTableRecord
2
*PAPER_SPACE
0
ENDTAB
0
ENDSEC
0
SECTION
2
BLOCKS
0
BLOCK
5
20
100
AcDbEntity
100
AcDbBlockBegin
2
*MODEL_SPACE
0
ENDBLK
5
21
100
AcDbEntity
100
AcDbBlockEnd
0
BLOCK
5
1C
100
AcDbEntity
100
AcDbBlockBegin
2
*PAPER_SPACE
0
ENDBLK
5
1D
100
AcDbEntity
100
AcDbBlockEnd
0
ENDSEC
0
SECTION
2
ENTITIES
0
LWPOLYLINE
5
100
100
AcDbEntity
8
0
100
AcDbPolyline
90
23
70
1
43
0.0
10
49.600000000000009
20
-1
10
50.599999999999994
20
-2.0000000000000009
10
55.600000000000009
20
-2.0000000000000044
10
55.600000000000009
20
-4.4408920985006262e-15
10
55.600000072862336
20
8.9644660836521144
42
0.19891236922797939
10
54.867767027624737
20
10.732233055142215
10
52.387223653378776
20
13.212776434428569
42
0.21230697555776737
10
50.491001690104262
20
13.941707164353566
42
-0.025707980890281437
10
-0.89100170994754535
20
13.941707164120061
42
0.21230697635171616
10
-2.7872236785866731
20
13.212776428805688
10
-5.2677670414295541
20
10.732233045801028
42
0.19891236632347073
10
-6.0000000812790635
20
8.9644661000187806
10
-6.0000000812790644
20
-2.0000000000000027
10
-1.000000000000002
20
-2.0000000000000009
10
0
20
-0.99999999999999978
10
0
20
7.0000000000000009
10
4.7999999999999998
20
7.0000000000000009
10
4.7999999999999989
20
-0.99999999999999978
10
5.7999999999999998
20
-2
10
43.800000000000011
20
-2
10
44.800000000000004
20
-0.99999999999999978
10
44.800000000000004
20
7.0000000000000373
10
49.600000000000009
20
7.0000000000000373
0
LWPOLYLINE
5
101
100
AcDbEntity
8
0
100
AcDbPolyline
90
6
70
1
43
0.0
10
15.062445252867446
20
8.2950825185498882
42
0.6670613289821905
10
14.353155929427395
20
9.9999999999999929
10
10.799999999999997
20
9.9999999999999858
42
0.41421356237309404
10
9.7999999999999972
20
8.9999999999999876
10
9.7999999999999936
20
5.4248076809271808
42
0.66929710140024445
10
11.509289323440044
20
4.7198901994770743
0
LWPOLYLINE
5
102
100
AcDbEntity
8
0
100
AcDbPolyline
90
6
70
1
43
0.0
10
39.800000000000011
20
8.9999999999999876
42
0.41421356237309342
10
38.800000000000011
20
9.9999999999999858
10
35.246844070573189
20
9.9999999999999929
42
0.66706132898217108
10
34.537554747133093
20
8.2950825185499291
10
38.090710676559915
20
4.7198901994773053
42
0.6692971014002651
10
39.800000000000011
20
5.4248076809273709
0
LWPOLYLINE
5
103
100
AcDbEntity
8
0
100
AcDbPolyline
90
6
70
1
43
0.0
10
25.509289323440086
20
10.286311720754602
42
0.41602560309066861
10
24.090710676559908
20
10.286311720754602
10
19.537554747133029
20
5.7049174814500381
42
0.66706132898217185
10
20.246844070573118
20
3.999999999999972
10
29.35315592942684
20
4.0000000000000231
42
0.66706132898216874
10
30.062445252866922
20
5.7049174814500869
0
ENDSEC
0
SECTION
2
OBJECTS
0
DICTIONARY
5
C
100
AcDbDictionary
3
ACAD_GROUP
350
D
3
ACAD_MLINESTYLE
350
17
0
DICTIONARY
5
D
100
AcDbDictionary
0
DICTIONARY
5
1A
330
C
100
AcDbDictionary
0
DICTIONARY
5
17
100
AcDbDictionary
0
ENDSEC
0
EOF
