0
SECTION
2
HEADER
9
$INSUNITS
70
4
9
$ACADVER
1
AC1014
9
$HANDSEED
5
FFFF
0
ENDSEC
0
SECTION
2
TABLES
0
TABLE
2
VPORT
5
8
100
AcDbSymbolTable
0
ENDTAB
0
TABLE
2
LTYPE
5
5
100
AcDbSymbolTable
0
LTYPE
5
14
100
AcDbSymbolTableRecord
100
AcDbLinetypeTableRecord
2
BYBLOCK
70
0
0
LTYPE
5
15
100
AcDbSymbolTableRecord
100
AcDbLinetypeTableRecord
2
BYLAYER
70
0
0
LTYPE
5
16
100
AcDbSymbolTableRecord
100
AcDbLinetypeTableRecord
2
DASHED
70
0
3
Dashed __ __ __ __ __ __ __ __ __ __ __ __ __ _
72
65
73
2
40
0.75
49
0.5
74
0
49
-0.25
74
0
0
ENDTAB
0
TABLE
2
LAYER
5
2
100
AcDbSymbolTable
70
2
0
LAYER
5
50
100
AcDbSymbolTableRecord
100
AcDbLayerTableRecord
2
0
70
0
62
7
6
CONTINUOUS
0
ENDTAB
0
TABLE
2
STYLE
5
3
100
AcDbSymbolTable
70
1
0
STYLE
5
11
100
AcDbSymbolTableRecord
100
AcDbTextStyleTableRecord
2
STANDARD
70
0
0
ENDTAB
0
TABLE
2
VIEW
5
6
100
AcDbSymbolTable
70
0
0
ENDTAB
0
TABLE
2
UCS
5
7
100
AcDbSymbolTable
70
0
0
ENDTAB
0
TABLE
2
APPID
5
9
100
AcDbSymbolTable
70
2
0
APPID
5
12
100
AcDbSymbolTableRecord
100
AcDbRegAppTableRecord
2
ACAD
70
0
0
ENDTAB
0
TABLE
2
DIMSTYLE
5
A
100
AcDbSymbolTable
70
1
0
ENDTAB
0
TABLE
2
BLOCK_RECORD
5
1
100
AcDbSymbolTable
70
1
0
BLOCK_RECORD
5
1F
100
AcDbSymbolTableRecord
100
AcDbBlockTableRecord
2
*MODEL_SPACE
0
BLOCK_RECORD
5
1B
100
AcDbSymbolTableRecord
100
AcDbBlockTableRecord
2
*PAPER_SPACE
0
ENDTAB
0
ENDSEC
0
SECTION
2
BLOCKS
0
BLOCK
5
20
100
AcDbEntity
100
AcDbBlockBegin
2
*MODEL_SPACE
0
ENDBLK
5
21
100
AcDbEntity
100
AcDbBlockEnd
0
BLOCK
5
1C
100
AcDbEntity
100
AcDbBlockBegin
2
*PAPER_SPACE
0
ENDBLK
5
1D
100
AcDbEntity
100
AcDbBlockEnd
0
ENDSEC
0
SECTION
2
ENTITIES
0
LWPOLYLINE
5
100
100
AcDbEntity
8
0
100
AcDbPolyline
90
16
70
1
43
0.0
10
6.5000000000000027
20
20.921320343559643
42
0.19891236737965734
10
6.9393398282201781
20
19.860660171779823
10
8.0606601717798245
20
18.739339828220178
42
0.19891236737965828
10
9.1213203435596473
20
18.299999999999997
10
10.878679656440358
20
18.300000000000001
42
0.19891236737965801
10
11.939339828220179
20
18.739339828220178
10
13.060660171779821
20
19.86066017177982
42
0.19891236737965909
10
13.499999999999998
20
20.921320343559643
10
13.5
20
40.678679656440352
42
0.19891236737966009
10
13.060660171779821
20
41.739339828220182
10
11.939339828220179
20
42.860660171779827
42
0.19891236737965723
10
10.878679656440358
20
43.299999999999997
10
9.121320343559649
20
43.299999999999997
42
0.19891236737965745
10
8.0606601717798263
20
42.860660171779827
10
6.9393398282201755
20
41.739339828220174
42
0.19891236737965737
10
6.4999999999999991
20
40.678679656440352
0
LWPOLYLINE
5
101
100
AcDbEntity
8
0
100
AcDbPolyline
90
18
70
1
43
0.0
10
19
20
10.800000000000001
10
20
20
11.800000000000001
10
20
20
49.800000000000004
10
19
20
50.799999999999997
10
10
20
50.799999999999997
10
10
20
55.600000000000009
10
19
20
55.600000000000009
10
20
20
56.600000000000001
10
20
20
61.600000000000001
10
3.0000000000000004
20
61.600000000000001
10
0
20
58.600000000000001
10
0
20
2.9999999999999982
10
3.0000000000000004
20
0
10
20
20
-9.2444637330587321e-32
10
20
20
5
10
19
20
6.0000000000000009
10
10
20
6.0000000000000009
10
10
20
10.800000000000001
0
ENDSEC
0
SECTION
2
OBJECTS
0
DICTIONARY
5
C
100
AcDbDictionary
3
ACAD_GROUP
350
D
3
ACAD_MLINESTYLE
350
17
0
DICTIONARY
5
D
100
AcDbDictionary
0
DICTIONARY
5
1A
330
C
100
AcDbDictionary
0
DICTIONARY
5
17
100
AcDbDictionary
0
ENDSEC
0
EOF
