0
SECTION
2
HEADER
9
$INSUNITS
70
4
9
$ACADVER
1
AC1014
9
$HANDSEED
5
FFFF
0
ENDSEC
0
SECTION
2
TABLES
0
TABLE
2
VPORT
5
8
100
AcDbSymbolTable
0
ENDTAB
0
TABLE
2
LTYPE
5
5
100
AcDbSymbolTable
0
LTYPE
5
14
100
AcDbSymbolTableRecord
100
AcDbLinetypeTableRecord
2
BYBLOCK
70
0
0
LTYPE
5
15
100
AcDbSymbolTableRecord
100
AcDbLinetypeTableRecord
2
BYLAYER
70
0
0
LTYPE
5
16
100
AcDbSymbolTableRecord
100
AcDbLinetypeTableRecord
2
DASHED
70
0
3
Dashed __ __ __ __ __ __ __ __ __ __ __ __ __ _
72
65
73
2
40
0.75
49
0.5
74
0
49
-0.25
74
0
0
ENDTAB
0
TABLE
2
LAYER
5
2
100
AcDbSymbolTable
70
2
0
LAYER
5
50
100
AcDbSymbolTableRecord
100
AcDbLayerTableRecord
2
0
70
0
62
7
6
CONTINUOUS
0
ENDTAB
0
TABLE
2
STYLE
5
3
100
AcDbSymbolTable
70
1
0
STYLE
5
11
100
AcDbSymbolTableRecord
100
AcDbTextStyleTableRecord
2
STANDARD
70
0
0
ENDTAB
0
TABLE
2
VIEW
5
6
100
AcDbSymbolTable
70
0
0
ENDTAB
0
TABLE
2
UCS
5
7
100
AcDbSymbolTable
70
0
0
ENDTAB
0
TABLE
2
APPID
5
9
100
AcDbSymbolTable
70
2
0
APPID
5
12
100
AcDbSymbolTableRecord
100
AcDbRegAppTableRecord
2
ACAD
70
0
0
ENDTAB
0
TABLE
2
DIMSTYLE
5
A
100
AcDbSymbolTable
70
1
0
ENDTAB
0
TABLE
2
BLOCK_RECORD
5
1
100
AcDbSymbolTable
70
1
0
BLOCK_RECORD
5
1F
100
AcDbSymbolTableRecord
100
AcDbBlockTableRecord
2
*MODEL_SPACE
0
BLOCK_RECORD
5
1B
100
AcDbSymbolTableRecord
100
AcDbBlockTableRecord
2
*PAPER_SPACE
0
ENDTAB
0
ENDSEC
0
SECTION
2
BLOCKS
0
BLOCK
5
20
100
AcDbEntity
100
AcDbBlockBegin
2
*MODEL_SPACE
0
ENDBLK
5
21
100
AcDbEntity
100
AcDbBlockEnd
0
BLOCK
5
1C
100
AcDbEntity
100
AcDbBlockBegin
2
*PAPER_SPACE
0
ENDBLK
5
1D
100
AcDbEntity
100
AcDbBlockEnd
0
ENDSEC
0
SECTION
2
ENTITIES
0
LWPOLYLINE
5
100
100
AcDbEntity
8
0
100
AcDbPolyline
90
16
70
1
43
0.0
10
0
20
-46.999999999999993
10
-0.99999999999999978
20
-46
10
-5
20
-46
10
-5
20
-14.000000208616257
10
-0.99999999999999978
20
-14.000000208616257
10
0
20
-13.00000020861626
10
0
20
0
10
-50
20
0
10
-50
20
-13.000000208616257
10
-49
20
-14.000000208616257
10
-45
20
-14.000000208616257
10
-45
20
-46
10
-49
20
-46
10
-50
20
-46.999999999999993
10
-50
20
-60
10
0
20
-60
0
CIRCLE
5
101
100
AcDbEntity
8
0
100
AcDbCircle
10
-35.299999999999997
20
-8
30
0
40
1.4999999999999991
210
0
220
0
230
1
0
LWPOLYLINE
5
102
100
AcDbEntity
8
0
100
AcDbPolyline
90
16
70
1
43
0.0
10
-35.585786437626894
20
-45.5
10
-14.414213174942919
20
-45.499999999999986
42
-0.19891236737965881
10
-13.707106393756368
20
-45.792893218813447
10
-12.292892831383259
20
-47.207106781186553
42
-0.19891236737965801
10
-11.999999612569807
20
-47.914213562373092
10
-11.999999612569807
20
-50.585786437626901
42
-0.1989123673796572
10
-12.292892831383258
20
-51.292893218813447
10
-13.707106393756375
20
-52.707106781186546
42
-0.1989123673796572
10
-14.414213174942919
20
-53
10
-35.585786437626894
20
-53
42
-0.19891236737965801
10
-36.29289321881344
20
-52.707106781186546
10
-37.707106781186546
20
-51.292893218813447
42
-0.19891236737965801
10
-38
20
-50.585786437626901
10
-38
20
-47.914213562373092
42
-0.1989123673796572
10
-37.707106781186546
20
-47.207106781186553
10
-36.29289321881344
20
-45.792893218813447
42
-0.19891236737965801
0
CIRCLE
5
103
100
AcDbEntity
8
0
100
AcDbCircle
10
-35.299999999999997
20
-36.100000000000009
30
0
40
1.5000000000000036
210
0
220
0
230
1
0
CIRCLE
5
104
100
AcDbEntity
8
0
100
AcDbCircle
10
-18.550000000000001
20
-8
30
0
40
1.4999999999999991
210
0
220
0
230
1
0
LWPOLYLINE
5
105
100
AcDbEntity
8
0
100
AcDbPolyline
90
20
70
1
43
0.0
10
-27.799999999999994
20
-36.131753685706151
10
-27.799999999999994
20
-36.100000000000009
42
0.41421356237309503
10
-35.299999999999997
20
-28.600000000000001
10
-36.299999999999997
20
-28.600000000000001
42
-0.41421356237309503
10
-37.299999999999997
20
-27.600000000000001
10
-37.299999999999997
20
-16.500000000000004
42
-0.41421356237309503
10
-36.299999999999997
20
-15.500000000000004
10
-35.299999999999997
20
-15.5
42
0.41421356935621301
10
-27.800000000000004
20
-7.9999998211860799
10
-27.799999378621578
20
-7.9682456761124243
42
-0.34199853391495283
10
-27.050000000000001
20
-7
42
-0.41421356237309503
10
-26.050000000000001
20
-8
42
0.41421356237309503
10
-18.550000000000001
20
-15.5
10
-17.550000000000004
20
-15.5
42
-0.41421356237309503
10
-16.550000000000004
20
-16.5
10
-16.550000000000001
20
-27.600000000000009
42
-0.41421356237309503
10
-17.550000000000001
20
-28.600000000000009
10
-18.550000000000001
20
-28.600000000000009
42
0.41421356237309503
10
-26.050000000000061
20
-36.100000000000009
42
-0.41421331949149032
10
-27.049999526142891
20
-37.099999644607252
42
-0.34199884977938277
0
CIRCLE
5
106
100
AcDbEntity
8
0
100
AcDbCircle
10
-18.550000000000001
20
-36.100000000000009
30
0
40
1.4999999999999991
210
0
220
0
230
1
0
ENDSEC
0
SECTION
2
OBJECTS
0
DICTIONARY
5
C
100
AcDbDictionary
3
ACAD_GROUP
350
D
3
ACAD_MLINESTYLE
350
17
0
DICTIONARY
5
D
100
AcDbDictionary
0
DICTIONARY
5
1A
330
C
100
AcDbDictionary
0
DICTIONARY
5
17
100
AcDbDictionary
0
ENDSEC
0
EOF
